<!-- Created with Inkscape (http://www.inkscape.org/) -->
<svg id="shapw-svg" xmlns:rdf="http://www.w3.org/1999/02/22-rdf-syntax-ns#" xmlns="http://www.w3.org/2000/svg" height="720" width="1280" version="1.1" xmlns:cc="http://creativecommons.org/ns#" xmlns:dc="http://purl.org/dc/elements/1.1/" viewBox="0 0 1280 720.00001">
 <g id="shape-group" stroke="#000" fill="none">
  <path id="border-path" d="m899.5 360c0 143.32-116.18 259.5-259.5 259.5s-259.5-116.18-259.5-259.5 116.18-259.5 259.5-259.5 259.5 116.18 259.5 259.5z" stroke-width=".99808px"/>
  <path id="inside-path" d="m520 194.29 64.29-34.29 77.14-7.14 74.28 27.14l58.571 42.857 2.8572 44.286-44.286 1.4286-48.571-32.857-61.429-17.143-60 7.1429-61.429 32.857-48.571-12.857-25.714 61.429 51.429 31.429 64.286-10 35.714-32.857 54.286-8.5714 60 24.286 32.857 27.143 44.29 2.86 48.57-31.43 8.57 50-17.14 52.86-51.43-7.15-68.57-12.85-61.429-31.429-65.714 20-67.143 12.857-67.143-12.857 4.2857 41.429 35.7 57.14 61.43-31.43 85.71-8.57 75.72 15.71 91.43 14.29-55.72 51.43-37.14 5.71-50-25.714-74.286 5.7143-54.286 20 67.143 30 51.44 4.29" stroke-width="1px"/>
 </g>
</svg>
